<svg width="25" height="25" viewBox="0 0 25 25" fill="none" xmlns="http://www.w3.org/2000/svg">
<path d="M12.8397 0C5.98651 0.00104168 2.34375 4.39173 2.34375 9.1793C2.34375 11.3991 3.58439 14.169 5.57088 15.0471C6.13755 15.3023 6.06255 14.9908 6.55006 13.1262C6.5886 12.971 6.56881 12.8366 6.44381 12.6918C3.60418 9.40742 5.88963 2.65525 12.4345 2.65525C21.9065 2.65525 20.1367 15.7617 14.0825 15.7617C12.522 15.7617 11.3595 14.5367 11.7272 13.021C12.1731 11.2158 13.046 9.27513 13.046 7.97407C13.046 4.69486 8.1605 5.18132 8.1605 9.52618C8.1605 10.8689 8.63551 11.7752 8.63551 11.7752C8.63551 11.7752 7.06361 18.1253 6.77194 19.3117C6.27818 21.3201 6.83861 24.5712 6.88756 24.8514C6.91777 25.0056 7.09069 25.0545 7.18757 24.9274C7.34278 24.7243 9.24281 22.0139 9.7751 20.0545C9.96886 19.3409 10.7637 16.445 10.7637 16.445C11.2876 17.3909 12.7981 18.1825 14.4075 18.1825C19.195 18.1825 22.6555 13.9742 22.6555 8.75221C22.6388 3.74589 18.3544 0 12.8397 0V0Z" fill="white"/>
</svg>
