<svg width="25" height="25" viewBox="0 0 25 25" fill="none" xmlns="http://www.w3.org/2000/svg">
<path d="M12.5 0C5.63431 0 0 5.63431 0 12.5C0 14.7659 0.610924 16.9718 1.76945 18.9016L0 25L6.09837 23.2306C8.02822 24.3891 10.2341 25 12.5 25C19.3657 25 25 19.3657 25 12.5C25 5.63431 19.3657 0 12.5 0ZM20.3152 17.7816L19.7336 18.3632C18.9108 19.186 17.0185 19.1208 15.8026 18.886C11.7596 18.1051 7.04594 13.5363 6.13689 9.57966C5.68676 7.61967 5.93529 5.91564 6.58531 5.26543L7.16686 4.68388C7.48787 4.36306 8.00934 4.36344 8.32996 4.68388L10.6565 7.01065C10.8118 7.16591 10.8969 7.37171 10.8969 7.59201C10.8969 7.81231 10.8118 8.0183 10.6565 8.17299L10.0752 8.75511C9.43432 9.39751 9.43432 10.441 10.0752 11.0819L13.9172 14.8733C14.5599 15.5161 15.6002 15.5169 16.2439 14.8733L16.8255 14.292C17.1257 13.99 17.6865 13.9891 17.9892 14.292L20.3152 16.618C20.631 16.9325 20.643 17.4536 20.3152 17.7816Z" fill="white"/>
</svg>
