<svg width="21" height="49" viewBox="0 0 21 49" fill="none" xmlns="http://www.w3.org/2000/svg">
<path d="M10.4218 8.24888C12.6714 8.24888 14.495 6.4023 14.495 4.12444C14.495 1.84657 12.6714 0 10.4218 0C8.17227 0 6.34863 1.84657 6.34863 4.12444C6.34863 6.4023 8.17227 8.24888 10.4218 8.24888Z" fill="#232323"/>
<path d="M11.8407 10.2154C10.8258 10.0067 9.72228 10.0159 8.72545 10.2538C1.95365 11.0573 -0.245179 18.9941 0.375698 25.0458C0.645015 27.6621 4.71822 27.6896 4.44619 25.0458C4.22025 22.8403 4.31695 19.5121 5.47466 17.1465C5.47466 20.0218 5.47466 22.8971 5.47466 25.7715C5.47466 25.873 5.4846 25.9682 5.48912 26.0661C5.48641 26.1128 5.47556 26.1522 5.47556 26.1997C5.47556 33.0439 5.46381 39.8853 5.18455 46.724C5.06074 49.764 9.71596 49.7521 9.83887 46.724C10.0576 41.3642 10.1127 36.0016 10.1254 30.6381C10.3459 30.6527 10.5664 30.6527 10.7869 30.6399C10.8005 36.0034 10.8538 41.366 11.0707 46.724C11.1945 49.7521 15.8497 49.764 15.725 46.724C15.4457 39.8853 15.4358 33.0439 15.4358 26.1997C15.4358 25.9874 15.4078 25.7943 15.3653 25.6086C15.359 22.6372 15.2469 19.6631 15.2813 16.6935C16.6676 19.0701 16.7941 22.6948 16.5537 25.0439C16.2808 27.6859 20.3549 27.6594 20.6242 25.0439C21.2596 18.8669 18.955 10.7242 11.8407 10.2154Z" fill="#232323"/>
</svg>
