<svg width="25" height="47" viewBox="0 0 25 47" fill="none" xmlns="http://www.w3.org/2000/svg">
<path d="M24.1265 3.30027C23.2217 2.65811 21.9956 2.91261 21.3876 3.86898L20.1008 5.89404C19.5943 5.64274 19.0304 5.61044 18.4915 5.91715C18.4585 5.93593 18.4281 5.95753 18.3966 5.97781L18.4043 5.9549C18.5399 5.54733 18.3371 5.10089 17.9514 4.95758C17.6886 4.85973 17.4111 4.93072 17.2167 5.11291C17.0433 2.52101 14.9982 0.472656 12.5001 0.472656C10.0018 0.472656 7.95674 2.52101 7.78328 5.11291C7.58849 4.93072 7.31107 4.85954 7.04857 4.95758C6.6629 5.10089 6.46012 5.54733 6.59573 5.9549L6.60337 5.97781C6.57191 5.95734 6.54134 5.93574 6.50864 5.91715C5.96996 5.61044 5.40568 5.64274 4.89917 5.89386L3.61244 3.86898C3.00462 2.91223 1.77797 2.65793 0.873529 3.30027C-0.0314445 3.94261 -0.272261 5.23837 0.335379 6.19474L2.59443 9.74959C2.47269 10.4088 2.46985 11.0807 2.67974 11.6892C2.73946 11.8624 2.88892 11.9831 3.06256 11.9983C3.23655 12.0136 3.40255 11.9206 3.48839 11.7604C3.54793 11.6494 3.60942 11.5455 3.6718 11.4452L6.60497 16.0609C6.56054 16.4588 6.57262 16.0877 6.57262 22.7632L3.88578 34.3396C3.76049 34.8795 3.87672 35.4505 4.2016 35.8879C4.52612 36.3256 5.02322 36.581 5.54946 36.581H6.57866V43.8654C6.57866 45.3054 7.68322 46.4727 9.04583 46.4727C10.4084 46.4727 11.513 45.3054 11.513 43.8654V36.581H13.4868V43.8654C13.4868 45.3054 14.5914 46.4727 15.954 46.4727C17.3166 46.4727 18.4212 45.3054 18.4212 43.8654V36.581H19.4388C19.965 36.581 20.4621 36.3256 20.7867 35.8879C21.1116 35.4505 21.2278 34.8795 21.1025 34.3396L18.4155 22.762H18.4153C18.4153 16.0849 18.4267 16.4632 18.3849 16.0766L21.3282 11.4448C21.3908 11.5451 21.4521 11.649 21.5116 11.76C21.5975 11.9204 21.7636 12.0134 21.9374 11.998C22.1114 11.9828 22.2607 11.862 22.3204 11.6888C22.5303 11.0803 22.5273 10.4085 22.4056 9.74921L24.6646 6.19437C25.2723 5.23837 25.0314 3.94261 24.1265 3.30027ZM15.9549 12.4183C15.3586 12.1035 14.6863 11.9257 13.9743 11.9257H11.0138C10.3055 11.9257 9.63641 12.1018 9.04228 12.4134L6.89963 9.04207C7.06865 8.93126 7.20106 8.80692 7.28245 8.64709C7.34537 8.52351 7.39495 8.39616 7.43156 8.26676C7.57072 8.42528 7.76657 8.51843 7.97256 8.51843C8.05396 8.51843 8.13695 8.50416 8.21799 8.47392C8.35466 8.42302 8.46699 8.33287 8.55087 8.22093C9.39737 9.5751 10.8499 10.4686 12.5001 10.4686C14.1503 10.4686 15.6028 9.5751 16.4491 8.22093C16.533 8.33287 16.6453 8.42302 16.7822 8.47392C16.8634 8.50416 16.9462 8.51843 17.0276 8.51843C17.2336 8.51843 17.4295 8.42509 17.5686 8.26676C17.6052 8.39598 17.6546 8.52351 17.7177 8.64709C17.7991 8.80674 17.9315 8.93107 18.1005 9.04189L15.9549 12.4183Z" fill="#232323"/>
</svg>
