<svg width="28" height="28" viewBox="0 0 28 28" fill="none" xmlns="http://www.w3.org/2000/svg">
<g clip-path="url(#clip0)">
<path d="M12.0998 1.02487C13.4666 2.3917 13.4666 4.60775 12.0998 5.97457C10.733 7.34139 8.51694 7.34139 7.15012 5.97457C5.78329 4.60775 5.78329 2.3917 7.15012 1.02487C8.51694 -0.34195 10.733 -0.34195 12.0998 1.02487Z" fill="#232323"/>
<path d="M5.97482 7.15012C7.34164 8.51694 7.34164 10.733 5.97482 12.0998C4.60799 13.4666 2.39194 13.4666 1.02512 12.0998C-0.341706 10.733 -0.341706 8.51694 1.02512 7.15012C2.39194 5.78329 4.60805 5.78329 5.97482 7.15012Z" fill="#232323"/>
<path d="M20.8498 1.02487C22.2166 2.3917 22.2166 4.60775 20.8498 5.97457C19.483 7.34139 17.2669 7.34139 15.9001 5.97457C14.5333 4.60775 14.5333 2.3917 15.9001 1.02487C17.267 -0.34195 19.483 -0.34195 20.8498 1.02487Z" fill="#232323"/>
<path d="M26.9748 7.15012C28.3416 8.51694 28.3416 10.733 26.9748 12.0998C25.608 13.4666 23.3919 13.4666 22.0251 12.0998C20.6583 10.733 20.6583 8.51694 22.0251 7.15012C23.3919 5.78329 25.608 5.78329 26.9748 7.15012Z" fill="#232323"/>
<path d="M21.4562 15.248C21.1221 15.0189 20.917 14.7216 20.8461 14.3636C20.4359 12.2778 19.1516 10.5603 17.2291 9.5281C15.2381 8.46 12.7627 8.45914 10.77 9.52895C8.84833 10.5603 7.56402 12.2778 7.15389 14.3636C7.08296 14.7216 6.87791 15.019 6.54378 15.248C4.2239 16.8347 3.10538 19.5477 3.62405 22.3291C4.12904 25.0361 6.28148 27.2492 8.98079 27.8353C9.48835 27.9447 9.99676 27.9994 10.5 27.9994C11.4955 27.9994 12.473 27.7866 13.3839 27.3662C13.7701 27.1885 14.2307 27.1885 14.6153 27.3662C15.9884 28.0003 17.5111 28.1626 19.0201 27.8345C21.7186 27.2492 23.871 25.0361 24.376 22.3282C24.8946 19.5477 23.7761 16.8347 21.4562 15.248Z" fill="#232323"/>
</g>
<defs>
<clipPath id="clip0">
<rect width="28" height="28" fill="white"/>
</clipPath>
</defs>
</svg>
