<svg width="10" height="8" viewBox="0 0 10 8" fill="none" xmlns="http://www.w3.org/2000/svg">
<path d="M8.34124 0.59125C8.49972 0.440375 8.71061 0.356965 8.92941 0.358621C9.14822 0.360277 9.35782 0.446868 9.514 0.600124C9.67017 0.75338 9.7607 0.961312 9.76649 1.18005C9.77227 1.39878 9.69285 1.61121 9.54499 1.7725L5.05624 7.38625C4.97906 7.46939 4.8859 7.5361 4.78234 7.58241C4.67878 7.62872 4.56695 7.65367 4.45353 7.65577C4.3401 7.65787 4.22742 7.63708 4.12222 7.59464C4.01702 7.55219 3.92145 7.48897 3.84124 7.40875L0.864494 4.432C0.781597 4.35476 0.715107 4.26161 0.668991 4.15811C0.622875 4.05461 0.598077 3.94288 0.596079 3.82959C0.59408 3.7163 0.61492 3.60376 0.657356 3.4987C0.699792 3.39364 0.762955 3.2982 0.843076 3.21808C0.923197 3.13796 1.01864 3.0748 1.1237 3.03236C1.22876 2.98993 1.34129 2.96909 1.45458 2.97108C1.56787 2.97308 1.6796 2.99788 1.7831 3.044C1.8866 3.09011 1.97975 3.1566 2.05699 3.2395L4.41274 5.59412L8.31987 0.616C8.3269 0.607339 8.33442 0.599076 8.34237 0.59125H8.34124Z" fill="#D69F67"/>
</svg>
