<svg width="22" height="22" viewBox="0 0 22 22" fill="none" xmlns="http://www.w3.org/2000/svg">
<g clip-path="url(#clip0)">
<path d="M20.5652 4.28636H18.9638C19.1751 3.95206 19.3145 3.57682 19.3542 3.17996C19.4812 1.91165 18.8132 0.774698 17.6761 0.270631C16.6308 -0.192701 15.4562 -0.00329437 14.6103 0.76387L12.5882 2.59649C12.1944 2.16577 11.6283 1.89506 11 1.89506C10.3706 1.89506 9.80358 2.16663 9.40968 2.59868L7.385 0.763655C6.53778 -0.00350918 5.36362 -0.192185 4.31883 0.270889C3.18196 0.774999 2.51389 1.91234 2.64125 3.1806C2.68108 3.57716 2.82038 3.95224 3.03157 4.28636H1.43477C0.64234 4.28636 0 4.92874 0 5.72113V7.87331C0 8.26948 0.321191 8.59071 0.717406 8.59071H21.2826C21.6788 8.59071 22 8.26952 22 7.87331V5.72113C22 4.92874 21.3577 4.28636 20.5652 4.28636ZM8.84782 4.04724V4.28636H5.47293C4.58124 4.28636 3.87948 3.45509 4.10218 2.52671C4.20028 2.11786 4.49539 1.76934 4.87708 1.59291C5.40121 1.35065 5.98181 1.42842 6.42202 1.82687L8.84843 4.0261C8.8483 4.03319 8.84782 4.04015 8.84782 4.04724ZM17.9306 2.98948C17.8771 3.73512 17.2036 4.28645 16.4561 4.28645H13.1522V4.04733C13.1522 4.03886 13.1517 4.03048 13.1516 4.02202C13.7012 3.52375 14.8937 2.443 15.5404 1.85678C15.9079 1.52364 16.4222 1.36814 16.8976 1.50994C17.5798 1.71344 17.9805 2.2936 17.9306 2.98948Z" fill="white"/>
<path d="M1.43481 10.0244V20.5462C1.43481 21.3386 2.07715 21.9809 2.86958 21.9809H9.56523V10.0244H1.43481Z" fill="white"/>
<path d="M12.4348 10.0244V21.9809H19.1305C19.9229 21.9809 20.5652 21.3386 20.5652 20.5462V10.0244H12.4348Z" fill="white"/>
</g>
<defs>
<clipPath id="clip0">
<rect width="22" height="22" fill="white"/>
</clipPath>
</defs>
</svg>
