<svg width="20" height="22" viewBox="0 0 20 22" fill="none" xmlns="http://www.w3.org/2000/svg">
<circle cx="10" cy="11" r="9.5" stroke="white"/>
<path d="M9.424 6.128C9.31733 6.128 9.22667 6.096 9.152 6.032C9.088 5.95733 9.056 5.86667 9.056 5.76V4.896C9.056 4.78933 9.088 4.69867 9.152 4.624C9.22667 4.54933 9.31733 4.512 9.424 4.512H10.432C10.5387 4.512 10.6293 4.54933 10.704 4.624C10.7787 4.69867 10.816 4.78933 10.816 4.896V5.76C10.816 5.86667 10.7787 5.95733 10.704 6.032C10.6293 6.096 10.5387 6.128 10.432 6.128H9.424ZM9.552 16C9.44533 16 9.35467 15.968 9.28 15.904C9.216 15.8293 9.184 15.7387 9.184 15.632V8.048C9.184 7.94133 9.216 7.856 9.28 7.792C9.35467 7.71733 9.44533 7.68 9.552 7.68H10.32C10.4267 7.68 10.512 7.71733 10.576 7.792C10.6507 7.856 10.688 7.94133 10.688 8.048V15.632C10.688 15.7387 10.6507 15.8293 10.576 15.904C10.512 15.968 10.4267 16 10.32 16H9.552Z" fill="white"/>
</svg>
