<svg width="19" height="44" viewBox="0 0 19 44" fill="none" xmlns="http://www.w3.org/2000/svg">
<path d="M9.42893 7.40715C11.4643 7.40715 13.1142 5.74901 13.1142 3.70358C13.1142 1.65815 11.4643 0 9.42893 0C7.39361 0 5.74365 1.65815 5.74365 3.70358C5.74365 5.74901 7.39361 7.40715 9.42893 7.40715Z" fill="white"/>
<path d="M10.7129 9.1731C9.7946 8.98574 8.79621 8.99396 7.89431 9.20761C1.76744 9.9291 -0.221968 17.056 0.339777 22.4902C0.583446 24.8395 4.26872 24.8642 4.0226 22.4902C3.81818 20.5098 3.90567 17.5211 4.95312 15.3969C4.95312 17.9789 4.95312 20.5608 4.95312 23.1418C4.95312 23.233 4.96212 23.3185 4.96621 23.4064C4.96375 23.4483 4.95394 23.4837 4.95394 23.5264C4.95394 29.6722 4.94331 35.8155 4.69065 41.9564C4.57863 44.6862 8.79049 44.6755 8.90169 41.9564C9.09957 37.1434 9.14945 32.3281 9.1609 27.5118C9.36041 27.525 9.55992 27.525 9.75944 27.5135C9.7717 32.3297 9.81995 37.1451 10.0162 41.9564C10.1282 44.6755 14.3401 44.6862 14.2272 41.9564C13.9746 35.8155 13.9656 29.6722 13.9656 23.5264C13.9656 23.3358 13.9402 23.1624 13.9018 22.9956C13.8961 20.3274 13.7947 17.6567 13.8258 14.9902C15.0801 17.1242 15.1946 20.3792 14.977 22.4886C14.7301 24.8609 18.4162 24.8371 18.6599 22.4886C19.2347 16.9418 17.1496 9.62999 10.7129 9.1731Z" fill="white"/>
</svg>
