<svg width="32" height="32" viewBox="0 0 32 32" fill="none" xmlns="http://www.w3.org/2000/svg">
<path d="M1 10.4667C1 9.77938 1.55716 9.22222 2.24444 9.22222H11.8889H21.5333C22.2206 9.22222 22.7778 9.77938 22.7778 10.4667V29.7556C22.7778 30.4428 22.2206 31 21.5333 31H2.24444C1.55716 31 1 30.4428 1 29.7556V10.4667Z" fill="white"/>
<path d="M1 3L6 5.88675V0.113249L1 3ZM22.7778 3L17.7778 0.113249V5.88675L22.7778 3ZM29 9.22222L26.1132 14.2222H31.8868L29 9.22222ZM29 31L31.8868 26H26.1132L29 31ZM22.2778 10.4667V29.7556H23.2778V10.4667H22.2778ZM21.5333 30.5H2.24444V31.5H21.5333V30.5ZM1.5 29.7556V10.4667H0.5V29.7556H1.5ZM2.24444 30.5C1.8333 30.5 1.5 30.1667 1.5 29.7556H0.5C0.5 30.719 1.28101 31.5 2.24444 31.5V30.5ZM22.2778 29.7556C22.2778 30.1667 21.9445 30.5 21.5333 30.5V31.5C22.4968 31.5 23.2778 30.719 23.2778 29.7556H22.2778ZM21.5333 9.72222C21.9445 9.72222 22.2778 10.0555 22.2778 10.4667H23.2778C23.2778 9.50324 22.4968 8.72222 21.5333 8.72222V9.72222ZM2.24444 8.72222C1.28101 8.72222 0.5 9.50324 0.5 10.4667H1.5C1.5 10.0555 1.8333 9.72222 2.24444 9.72222V8.72222ZM5.5 3.5H18.2778V2.5H5.5V3.5ZM28.5 13.7222V26.5H29.5V13.7222H28.5ZM2.24444 9.72222H11.8889V8.72222H2.24444V9.72222ZM11.8889 9.72222H21.5333V8.72222H11.8889V9.72222Z" fill="white"/>
</svg>
