<svg width="28" height="35" viewBox="0 0 28 35" fill="none" xmlns="http://www.w3.org/2000/svg">
<path d="M6.28662 6.08691V28.913H21.714V6.08691H6.28662ZM18.0407 19.7825C16.8255 19.7825 15.8369 18.7585 15.8369 17.4999C15.8369 16.2413 16.8255 15.2173 18.0407 15.2173C19.256 15.2173 20.2446 16.2413 20.2446 17.4999C20.2447 18.7585 19.256 19.7825 18.0407 19.7825Z" fill="white"/>
<path d="M26.4886 0H1.51115C0.902611 0 0.40918 0.510985 0.40918 1.14133V33.8587C0.40918 34.4889 0.902545 35 1.51115 35H26.4887C27.0972 35 27.5906 34.489 27.5906 33.8587V1.14133C27.5906 0.510985 27.0972 0 26.4886 0ZM23.9174 30.0543C23.9174 30.6846 23.4241 31.1956 22.8155 31.1956H5.1843C4.57576 31.1956 4.08233 30.6846 4.08233 30.0543V4.94565C4.08233 4.31538 4.5757 3.80433 5.1843 3.80433H22.8155C23.424 3.80433 23.9174 4.31531 23.9174 4.94565V30.0543Z" fill="white"/>
</svg>
