<svg width="28" height="28" viewBox="0 0 28 28" fill="none" xmlns="http://www.w3.org/2000/svg">
<g clip-path="url(#clip0)">
<path d="M14 5.35938C9.23557 5.35938 5.35938 9.23557 5.35938 14C5.35938 18.7644 9.23557 22.6406 14 22.6406C18.7644 22.6406 22.6406 18.7644 22.6406 14C22.6406 9.23557 18.7644 5.35938 14 5.35938ZM14.8203 14.8203H9.24219V13.1797H13.1797V6.79941H14.8203V14.8203Z" fill="white"/>
<path d="M23.8995 4.10049C21.2553 1.45627 17.7395 0 14 0C10.2605 0 6.74472 1.45627 4.10049 4.10049C1.45627 6.74472 0 10.2605 0 14C0 17.7395 1.45627 21.2553 4.10049 23.8995C6.74472 26.5437 10.2605 28 14 28C17.7395 28 21.2553 26.5437 23.8995 23.8995C26.5437 21.2553 28 17.7395 28 14C28 10.2605 26.5437 6.74472 23.8995 4.10049ZM14 24.2812C8.33087 24.2812 3.71875 19.6691 3.71875 14C3.71875 8.33087 8.33087 3.71875 14 3.71875C19.6691 3.71875 24.2812 8.33087 24.2812 14C24.2812 19.6691 19.6691 24.2812 14 24.2812Z" fill="white"/>
</g>
<defs>
<clipPath id="clip0">
<rect width="28" height="28" fill="white"/>
</clipPath>
</defs>
</svg>
