<svg width="20" height="20" viewBox="0 0 20 20" fill="none" xmlns="http://www.w3.org/2000/svg">
<g clip-path="url(#clip0)">
<path d="M2.03561e-07 2.92969L3.49362e-08 17.0703C1.5674e-08 18.6856 1.31439 20 2.92969 20L17.0703 20C18.6856 20 20 18.6856 20 17.0703L20 2.92969C20 1.31439 18.6856 2.22824e-07 17.0703 2.03561e-07L2.92969 3.49362e-08C1.31439 1.5674e-08 2.22824e-07 1.31439 2.03561e-07 2.92969ZM15.2344 9.96094C15.2344 12.8688 12.8688 15.2344 9.96094 15.2344C7.05307 15.2344 4.6875 12.8688 4.6875 9.96094C4.6875 7.05307 7.05307 4.6875 9.96094 4.6875C12.8688 4.6875 15.2344 7.05307 15.2344 9.96094ZM5.85938 4.10156C5.85938 5.0708 5.0708 5.85938 4.10156 5.85938C3.13232 5.85938 2.34375 5.0708 2.34375 4.10156C2.34375 3.13232 3.13232 2.34375 4.10156 2.34375C5.0708 2.34375 5.85938 3.13232 5.85938 4.10156Z" fill="#3D3D3D"/>
<path d="M3.51563 4.10156C3.51563 4.4249 3.77823 4.6875 4.10156 4.6875C4.4249 4.6875 4.6875 4.4249 4.6875 4.10156C4.6875 3.77823 4.4249 3.51563 4.10156 3.51563C3.77823 3.51563 3.51563 3.77823 3.51563 4.10156Z" fill="#3D3D3D"/>
<path d="M5.85938 9.96094C5.85938 12.2223 7.69958 14.0625 9.96094 14.0625C12.2223 14.0625 14.0625 12.2223 14.0625 9.96094C14.0625 7.69959 12.2223 5.85938 9.96094 5.85938C7.69959 5.85938 5.85938 7.69958 5.85938 9.96094Z" fill="#3D3D3D"/>
</g>
<defs>
<clipPath id="clip0">
<rect width="20" height="20" fill="white" transform="translate(0 20) rotate(-90)"/>
</clipPath>
</defs>
</svg>
