<svg width="20" height="20" viewBox="0 0 20 20" fill="none" xmlns="http://www.w3.org/2000/svg">
<g clip-path="url(#clip0)">
<path d="M1.19249e-07 10C5.37508e-08 15.4926 4.50745 20 10 20C11.8127 20 13.5774 19.5113 15.1213 18.5844L20 20L18.5844 15.1213C19.5113 13.5774 20 11.8127 20 10C20 4.50745 15.4926 1.84747e-07 10 1.19249e-07C4.50745 5.37508e-08 1.84747e-07 4.50745 1.19249e-07 10ZM14.2253 3.74786L14.6906 4.2131C15.3488 4.87137 15.2966 6.38519 15.1088 7.35794C14.4841 10.5923 10.829 14.3633 7.66373 15.0905C6.09573 15.4506 4.73251 15.2518 4.21234 14.7318L3.7471 14.2665C3.49045 14.0097 3.49075 13.5925 3.7471 13.336L5.60852 11.4748C5.73273 11.3506 5.89737 11.2825 6.07361 11.2825C6.24985 11.2825 6.41464 11.3506 6.53839 11.4748L7.00409 11.9398C7.51801 12.4525 8.35281 12.4525 8.86551 11.9398L11.8987 8.86627C12.4129 8.35205 12.4135 7.51984 11.8987 7.00485L11.4336 6.53961C11.192 6.29944 11.1913 5.85083 11.4336 5.60867L13.2944 3.74786C13.546 3.49518 13.9629 3.48557 14.2253 3.74786Z" fill="#3D3D3D"/>
</g>
<defs>
<clipPath id="clip0">
<rect width="20" height="20" fill="white" transform="translate(0 20) rotate(-90)"/>
</clipPath>
</defs>
</svg>
