<svg width="75" height="52" viewBox="0 0 75 52" fill="none" xmlns="http://www.w3.org/2000/svg">
<path d="M47.0205 22.3618V14.8559H43.3408V13.6431H52.0594V14.8559H48.3797V22.3618H47.0205Z" fill="white"/>
<path d="M33.4326 22.3618V13.6431H34.147L39.684 19.7691V13.6431H41.0222V22.3618H40.3078L34.7708 16.2565V22.3618H33.4326Z" fill="white"/>
<path d="M20.1807 22.3618V13.6431H21.3132L24.8815 18.7448L28.4568 13.6431H29.5895V22.3618H28.2303V16.0928L24.8815 20.9401L21.5398 16.0928V22.3618H20.1807Z" fill="white"/>
<path d="M9.74512 22.3618V13.6431H11.1043V21.1073H17.5856V22.3618H9.74512Z" fill="white"/>
<path d="M64.7314 39.2765V28.0068H65.4665L72.7811 36.4294V28.0068H74.1821V39.2765H73.4676L66.1323 30.8539V39.2765H64.7314Z" fill="white"/>
<path d="M60.4418 36.2241V34.5722H57.3683V33.276H61.8427V36.6631C61.2992 37.6005 60.5882 38.3182 59.7135 38.82C58.8389 39.3183 57.8459 39.5692 56.7376 39.5692C55.0512 39.5692 53.6572 39.0118 52.5561 37.9001C51.4584 36.7886 50.9077 35.3773 50.9077 33.6662C50.9077 31.9517 51.4584 30.5369 52.5595 29.4254C53.6641 28.3137 55.0547 27.756 56.7341 27.756C57.776 27.756 58.7275 27.9827 59.5846 28.4391C60.4418 28.8957 61.1389 29.5474 61.6755 30.3907L60.5045 31.2269C60.1492 30.5544 59.6405 30.0247 58.9715 29.6449C58.3057 29.2651 57.5602 29.0735 56.7376 29.0735C55.4728 29.0735 54.424 29.5089 53.5945 30.3766C52.7652 31.2444 52.3504 32.3421 52.3504 33.6662C52.3504 34.9938 52.7652 36.0915 53.5945 36.9558C54.424 37.8201 55.4728 38.252 56.7376 38.252C57.5288 38.252 58.2292 38.0813 58.846 37.7433C59.4592 37.4017 59.9923 36.8965 60.4418 36.2241Z" fill="white"/>
<path d="M47.0205 39.2766V27.9442H48.4422V39.2766H47.0205Z" fill="white"/>
<path d="M33.2944 37.5795L34.1098 36.3703C34.9077 36.9871 35.7371 37.4576 36.5978 37.785C37.4586 38.1092 38.3123 38.273 39.1556 38.273C40.1975 38.273 41.0443 38.0534 41.6925 37.6109C42.3439 37.1684 42.6682 36.6004 42.6682 35.907C42.6682 35.3563 42.4346 34.9031 41.9676 34.5478C41.5009 34.1924 40.8561 33.9798 40.0338 33.9102C39.835 33.8892 39.5492 33.8682 39.1764 33.8509C37.3225 33.7186 36.0611 33.5025 35.385 33.1958C34.8625 32.9414 34.4617 32.6174 34.1898 32.2201C33.9181 31.8193 33.7821 31.3733 33.7821 30.875C33.7821 29.9689 34.1863 29.2232 34.9983 28.6342C35.8068 28.0489 36.8593 27.756 38.152 27.756C39.0929 27.756 40.0197 27.9094 40.9363 28.2196C41.8528 28.5297 42.724 28.9898 43.5463 29.596L42.7309 30.7671C42.034 30.206 41.3055 29.7842 40.539 29.4985C39.7722 29.2162 38.9847 29.0735 38.1765 29.0735C37.326 29.0735 36.6257 29.2407 36.0715 29.5716C35.5211 29.9027 35.2457 30.3174 35.2457 30.8157C35.2457 31.0108 35.2909 31.192 35.3781 31.3558C35.4653 31.5197 35.6045 31.6766 35.7858 31.8193C36.2493 32.1643 37.2494 32.3873 38.7896 32.4814C39.4971 32.5233 40.0476 32.5651 40.4345 32.6137C41.5774 32.7429 42.4835 33.1086 43.1524 33.7151C43.8182 34.3213 44.1526 35.0637 44.1526 35.9487C44.1526 37.001 43.6962 37.8687 42.7795 38.5483C41.8631 39.2277 40.661 39.5692 39.1764 39.5692C38.0545 39.5692 37.0089 39.4055 36.0473 39.0815C35.082 38.7538 34.1656 38.2554 33.2944 37.5795Z" fill="white"/>
<path d="M22.9556 39.2765V28.0068H31.8207V29.3033H24.3566V32.6067H28.8727V33.9032H24.3566V37.9802H32.2808V39.2765H22.9556Z" fill="white"/>
<path d="M14.5783 28.0068C16.3521 28.0068 17.7807 28.5296 18.8645 29.5787C19.9484 30.6274 20.4919 31.9901 20.4919 33.673C20.4919 35.3666 19.9588 36.7258 18.8924 37.7466C17.8227 38.7677 16.3869 39.2765 14.5783 39.2765H9.74512V28.0068H14.5783ZM14.5783 29.3033H11.146V37.9802H14.5783C15.9651 37.9802 17.0594 37.5898 17.854 36.8127C18.6519 36.0323 19.0493 34.9798 19.0493 33.6523C19.0493 32.3454 18.645 31.293 17.833 30.4985C17.0245 29.7006 15.9375 29.3033 14.5783 29.3033Z" fill="white"/>
<path fill-rule="evenodd" clip-rule="evenodd" d="M48.3796 50.5668V51.926H0.165527V50.5668H48.3796ZM48.3796 50.5668H47.0205V44.9217H48.3796V50.5668ZM48.3796 7.99784H47.0205L46.9749 1.67914L48.3796 0.99353V7.99784Z" fill="#D69F67"/>
<path fill-rule="evenodd" clip-rule="evenodd" d="M0.165527 51.926L1.52473 50.5668V2.35273H0.165527V51.926ZM48.3796 0.99353L47.0205 2.35273H1.52473H0.165527V0.99353H48.3796Z" fill="#5B5B5B"/>
</svg>
